<svg preserveAspectRatio="none" width="100%" height="100%" overflow="visible" style="display: block;" viewBox="0 0 14 14" fill="none" xmlns="http://www.w3.org/2000/svg">
<g id="Edit">
<path id="Vector" d="M8.64576 2.33743L0.942758 10.041C0.904005 10.0799 0.876022 10.1289 0.862697 10.1817L0.00889325 13.6087C-0.0166465 13.7118 0.0136681 13.8215 0.0889547 13.8968C0.145919 13.9538 0.223538 13.9853 0.302933 13.9853C0.327251 13.9853 0.352125 13.9823 0.376332 13.9762L3.80332 13.1223C3.85673 13.109 3.90525 13.0811 3.94401 13.0423L11.6477 5.33935L8.64576 2.33743Z" fill="var(--fill-0, #0163FF)"/>
<path id="Vector_2" d="M13.5561 1.28708L12.6986 0.429609C12.1255 -0.14348 11.1267 -0.142925 10.5543 0.429609L9.50391 1.47996L12.5057 4.48176L13.5561 3.43141C13.8423 3.14526 14 2.76438 14 2.3593C14 1.95422 13.8423 1.57334 13.5561 1.28708Z" fill="var(--fill-0, #0163FF)"/>
</g>
</svg>
