<svg preserveAspectRatio="none" width="100%" height="100%" overflow="visible" style="display: block;" viewBox="0 0 14 14" fill="none" xmlns="http://www.w3.org/2000/svg">
<g id="Delete">
<path id="Vector" d="M13.3 2H0.7C0.514348 2 0.336301 2.07437 0.205025 2.20675C0.0737498 2.33913 0 2.51867 0 2.70588C0 2.89309 0.0737498 3.07264 0.205025 3.20502C0.336301 3.3374 0.514348 3.41176 0.7 3.41176H2.1V11.8824C2.10017 12.4439 2.32147 12.9825 2.71526 13.3796C3.10905 13.7767 3.6431 13.9998 4.2 14H9.8C10.3569 13.9999 10.891 13.7767 11.2848 13.3796C11.6786 12.9825 11.8999 12.4439 11.9 11.8824V3.41176H13.3C13.4857 3.41176 13.6637 3.3374 13.795 3.20502C13.9263 3.07264 14 2.89309 14 2.70588C14 2.51867 13.9263 2.33913 13.795 2.20675C13.6637 2.07437 13.4857 2 13.3 2ZM6.3 9.76471C6.3 9.95192 6.22625 10.1315 6.09497 10.2638C5.9637 10.3962 5.78565 10.4706 5.6 10.4706C5.41435 10.4706 5.2363 10.3962 5.10503 10.2638C4.97375 10.1315 4.9 9.95192 4.9 9.76471V6.23529C4.9 6.04808 4.97375 5.86854 5.10503 5.73616C5.2363 5.60378 5.41435 5.52941 5.6 5.52941C5.78565 5.52941 5.9637 5.60378 6.09497 5.73616C6.22625 5.86854 6.3 6.04808 6.3 6.23529V9.76471ZM9.1 9.76471C9.1 9.95192 9.02625 10.1315 8.89497 10.2638C8.7637 10.3962 8.58565 10.4706 8.4 10.4706C8.21435 10.4706 8.0363 10.3962 7.90503 10.2638C7.77375 10.1315 7.7 9.95192 7.7 9.76471V6.23529C7.7 6.04808 7.77375 5.86854 7.90503 5.73616C8.0363 5.60378 8.21435 5.52941 8.4 5.52941C8.58565 5.52941 8.7637 5.60378 8.89497 5.73616C9.02625 5.86854 9.1 6.04808 9.1 6.23529V9.76471Z" fill="var(--fill-0, #FD4438)"/>
<path id="Vector_2" d="M5.66667 1H8.33333C8.51014 1 8.67971 0.947322 8.80474 0.853553C8.92976 0.759785 9 0.632608 9 0.5C9 0.367392 8.92976 0.240215 8.80474 0.146447C8.67971 0.0526784 8.51014 0 8.33333 0H5.66667C5.48986 0 5.32029 0.0526784 5.19526 0.146447C5.07024 0.240215 5 0.367392 5 0.5C5 0.632608 5.07024 0.759785 5.19526 0.853553C5.32029 0.947322 5.48986 1 5.66667 1Z" fill="var(--fill-0, #FD4438)"/>
</g>
</svg>
