<svg preserveAspectRatio="none" width="100%" height="100%" overflow="visible" style="display: block;" viewBox="0 0 16 17" fill="none" xmlns="http://www.w3.org/2000/svg">
<path id="Vector" opacity="0.7" d="M7.73145 0.5C7.87061 0.5 8.00652 0.537632 8.125 0.607422L8.2373 0.688477L9.50195 1.7959L9.50293 1.79395C9.57201 1.85613 9.6535 1.90309 9.74316 1.92871C9.82335 1.9516 9.90699 1.95691 9.98926 1.94629L11.6533 1.79688C11.8386 1.78036 12.0244 1.83193 12.1748 1.94141C12.3251 2.05085 12.4304 2.21131 12.4717 2.39258V2.39355L12.8447 4.02734V4.02832C12.8638 4.11829 12.9029 4.20279 12.958 4.27637C13.0088 4.34407 13.0735 4.3998 13.1465 4.44238V4.44434L14.5869 5.29883L14.5879 5.2998C14.748 5.3941 14.8682 5.54404 14.9258 5.7207C14.9833 5.89755 14.9744 6.09013 14.9004 6.26074V6.26172L14.2324 7.80957L14.2285 7.81934C14.1653 7.97568 14.1653 8.15127 14.2285 8.30762L14.2324 8.31836L14.9004 9.86328C14.9737 10.0325 14.983 10.2231 14.9258 10.3984C14.8684 10.5739 14.7481 10.7221 14.5889 10.8154L14.585 10.8184L13.1445 11.6807L13.1455 11.6816C13.1125 11.701 13.0807 11.7222 13.0518 11.7471L12.958 11.8477C12.9304 11.8845 12.9066 11.9241 12.8877 11.9658L12.8467 12.0889L12.4717 13.7314V13.7334C12.4313 13.9146 12.3259 14.0753 12.1758 14.1846C12.0258 14.2937 11.841 14.3444 11.6562 14.3271L9.9834 14.1699V14.1689L9.96973 14.168C9.88237 14.1622 9.79436 14.1747 9.71191 14.2041C9.63448 14.2318 9.56427 14.2755 9.50293 14.3301L9.50195 14.3291L8.23926 15.4346C8.09781 15.5555 7.91756 15.6221 7.73145 15.6221C7.54544 15.622 7.365 15.5555 7.22363 15.4346L5.96094 14.3291H5.95996C5.89876 14.2748 5.82813 14.2317 5.75098 14.2041C5.66872 14.1748 5.58129 14.1623 5.49414 14.168L5.47949 14.1699L3.80762 14.3271C3.62289 14.3445 3.43814 14.2937 3.28809 14.1846C3.13799 14.0753 3.03252 13.9146 2.99219 13.7334V13.7314L2.61719 12.0889H2.61621C2.58068 11.9321 2.48886 11.7938 2.35742 11.7012L2.3418 11.6904L2.32617 11.6807L0.87793 10.8154L0.874023 10.8125C0.714987 10.7192 0.5954 10.5708 0.538086 10.3955C0.49515 10.264 0.489807 10.1243 0.520508 9.99121L0.563477 9.86035L1.23047 8.31543L1.23535 8.30469C1.28285 8.18728 1.29435 8.05912 1.27051 7.93652L1.23535 7.81641L1.23047 7.80566L0.563477 6.26074H0.5625C0.488489 6.09013 0.479551 5.89755 0.537109 5.7207C0.594676 5.54403 0.714913 5.39414 0.875 5.2998H0.875977L2.31641 4.44727L2.31543 4.44531C2.3889 4.40266 2.4548 4.34738 2.50586 4.2793C2.55943 4.20772 2.59566 4.12527 2.61523 4.03809L2.61719 4.03906L2.99219 2.39648V2.39258C3.03211 2.21116 3.13713 2.05003 3.28711 1.94043C3.39981 1.85816 3.53264 1.80901 3.66992 1.79688H3.80957L5.47363 1.94629C5.55615 1.95703 5.64027 1.95169 5.7207 1.92871C5.80992 1.90319 5.89013 1.85568 5.95898 1.79395L5.96094 1.7959L7.22559 0.688477C7.3662 0.567256 7.5458 0.500075 7.73145 0.5ZM10.6875 5.0918C10.5475 5.09318 10.4089 5.12255 10.2803 5.17773C10.1523 5.23266 10.0366 5.31237 9.93945 5.41211L6.84961 8.57031L5.39062 7.52344H5.3916C5.16289 7.35858 4.87794 7.29101 4.59961 7.33594C4.32102 7.38104 4.07135 7.53576 3.90625 7.76465C3.74132 7.99343 3.67374 8.27822 3.71875 8.55664C3.76385 8.83519 3.91765 9.0849 4.14648 9.25L4.14844 9.25098L6.35352 10.8252C6.53558 10.9562 6.75423 11.0264 6.97852 11.0244C7.2569 11.0218 7.52461 10.9133 7.72559 10.7207L7.7373 10.709L11.457 6.89844L11.458 6.89746C11.6532 6.69616 11.7614 6.42592 11.7588 6.14551C11.7561 5.86516 11.6433 5.59698 11.4443 5.39941C11.3449 5.30065 11.2265 5.22272 11.0967 5.16992C10.9669 5.11718 10.8276 5.09048 10.6875 5.0918Z" fill="var(--fill-0, #24CA49)" stroke="var(--stroke-0, #24CA49)"/>
</svg>
