<svg preserveAspectRatio="none" width="100%" height="100%" overflow="visible" style="display: block;" viewBox="0 0 32 32" fill="none" xmlns="http://www.w3.org/2000/svg">
<g id="bell">
<path id="Vector" d="M16 31.9453C18.1067 31.9453 19.92 30.5987 20.5867 28.7187H11.4133C12.08 30.5987 13.8933 31.9453 16 31.9453V31.9453ZM28.8667 23.0253C28.8133 22.9587 28.76 22.892 28.6933 22.8253C28.64 22.7587 28.5867 22.7053 28.52 22.652C28.28 22.452 28.04 22.2253 27.8267 21.9987C27.3867 21.5453 27.0133 21.0387 26.68 20.5053C25.88 19.172 25.44 17.6253 25.44 16.0253V13.412C25.44 9.24134 22.7107 5.69467 18.948 4.45067V3.02934C18.948 1.404 17.6253 0.0826706 16 0.0826706C14.3747 0.0826706 13.052 1.40534 13.052 3.02934V4.45067C9.28933 5.69334 6.56 9.24134 6.56 13.412V16.0253C6.56 16.3453 6.54667 16.6653 6.50667 16.972C6.37333 18.2387 5.96 19.4387 5.30667 20.5187C5.06667 20.9187 4.77333 21.3187 4.44 21.6787C4.36 21.7987 4.26667 21.9053 4.16 22.012C4.05333 22.1187 3.94667 22.2387 3.82667 22.3453C3.70667 22.4653 3.58667 22.572 3.46667 22.6653V22.6787C3.4 22.732 3.34667 22.7853 3.29333 22.852C2.89333 23.2787 2.66667 23.8387 2.66667 24.412C2.66667 25.6787 3.69333 26.7187 4.96 26.7187H11.1733H13.04H18.96H20.8267H27.04C28.3067 26.7187 29.3333 25.6787 29.3333 24.412C29.3333 23.9053 29.1733 23.4253 28.8667 23.0253V23.0253Z" fill="var(--fill-0, #D1D1D1)"/>
</g>
</svg>
