<svg width="19" height="16" viewBox="0 0 19 16" fill="none" xmlns="http://www.w3.org/2000/svg">
<path d="M17.0189 0.881275L16.283 0.145332C16.075 -0.0626585 15.691 -0.0306494 15.451 0.257296L12.8908 2.80126C11.7388 2.30532 10.4749 2.06532 9.14682 2.06532C5.1947 2.08126 1.77092 4.38523 0.122802 7.69743C0.0267743 7.90542 0.0267743 8.16135 0.122802 8.33734C0.890735 9.90536 2.04281 11.2014 3.48281 12.1773L1.38682 14.3053C1.14682 14.5453 1.11481 14.9293 1.27485 15.1373L2.0108 15.8732C2.21879 16.0812 2.60277 16.0492 2.84277 15.7613L16.8907 1.71339C17.1947 1.47352 17.2267 1.08956 17.0187 0.88155L17.0189 0.881275ZM9.99481 5.71316C9.7228 5.64914 9.43485 5.56919 9.16283 5.56919C7.80278 5.56919 6.71489 6.65721 6.71489 8.01712C6.71489 8.28913 6.77891 8.57708 6.85887 8.8491L5.78675 9.90513C5.4668 9.34518 5.29081 8.72108 5.29081 8.01715C5.29081 5.88918 7.00283 4.17715 9.13081 4.17715C9.83487 4.17715 10.4588 4.35314 11.0188 4.6731L9.99481 5.71316Z" fill="#666666" fill-opacity="0.8"/>
<path d="M18.1709 7.69737C17.6109 6.57732 16.8749 5.56939 15.963 4.75336L12.9869 7.69737V8.01732C12.9869 10.1453 11.2749 11.8573 9.1469 11.8573H8.82695L6.93896 13.7453C7.64302 13.8893 8.37897 13.9853 9.09897 13.9853C13.0511 13.9853 16.4749 11.6813 18.123 8.35319C18.267 8.12912 18.267 7.90521 18.1709 7.6972L18.1709 7.69737Z" fill="#666666" fill-opacity="0.8"/>
</svg>
