<svg preserveAspectRatio="none" width="100%" height="100%" overflow="visible" style="display: block;" viewBox="0 0 32 32" fill="none" xmlns="http://www.w3.org/2000/svg">
<g id="Invoice">
<path id="Vector" d="M25.3333 1.33333H6.66667C6.34717 1.33701 6.03962 1.4553 5.8 1.66667C6.75085 2.0012 7.58743 2.59834 8.21279 3.38889C8.83814 4.17943 9.22667 5.13101 9.33333 6.13333C9.35372 6.31053 9.35372 6.48947 9.33333 6.66667V29.3333C9.3327 29.5884 9.40522 29.8382 9.54229 30.0533C9.67936 30.2683 9.87523 30.4396 10.1067 30.5467C10.3386 30.6535 10.5964 30.6914 10.8493 30.6559C11.1022 30.6205 11.3397 30.5131 11.5333 30.3467L15.3333 27.0933L19.1333 30.3467C19.3748 30.5532 19.6822 30.6668 20 30.6668C20.3178 30.6668 20.6252 30.5532 20.8667 30.3467L24.6667 27.0933L28.4667 30.3467C28.7082 30.5532 29.0155 30.6667 29.3333 30.6667C29.5262 30.6653 29.7168 30.6245 29.8933 30.5467C30.1248 30.4396 30.3206 30.2683 30.4577 30.0533C30.5948 29.8382 30.6673 29.5884 30.6667 29.3333V6.66667C30.6667 5.25218 30.1048 3.89562 29.1046 2.89543C28.1044 1.89524 26.7478 1.33333 25.3333 1.33333V1.33333ZM24 20H16C15.6464 20 15.3072 19.8595 15.0572 19.6095C14.8071 19.3594 14.6667 19.0203 14.6667 18.6667C14.6667 18.313 14.8071 17.9739 15.0572 17.7239C15.3072 17.4738 15.6464 17.3333 16 17.3333H24C24.3536 17.3333 24.6928 17.4738 24.9428 17.7239C25.1929 17.9739 25.3333 18.313 25.3333 18.6667C25.3333 19.0203 25.1929 19.3594 24.9428 19.6095C24.6928 19.8595 24.3536 20 24 20ZM24 14.6667H16C15.6464 14.6667 15.3072 14.5262 15.0572 14.2761C14.8071 14.0261 14.6667 13.687 14.6667 13.3333C14.6667 12.9797 14.8071 12.6406 15.0572 12.3905C15.3072 12.1405 15.6464 12 16 12H24C24.3536 12 24.6928 12.1405 24.9428 12.3905C25.1929 12.6406 25.3333 12.9797 25.3333 13.3333C25.3333 13.687 25.1929 14.0261 24.9428 14.2761C24.6928 14.5262 24.3536 14.6667 24 14.6667ZM24 9.33333H16C15.6464 9.33333 15.3072 9.19286 15.0572 8.94281C14.8071 8.69276 14.6667 8.35362 14.6667 8C14.6667 7.64638 14.8071 7.30724 15.0572 7.05719C15.3072 6.80714 15.6464 6.66667 16 6.66667H24C24.3536 6.66667 24.6928 6.80714 24.9428 7.05719C25.1929 7.30724 25.3333 7.64638 25.3333 8C25.3333 8.35362 25.1929 8.69276 24.9428 8.94281C24.6928 9.19286 24.3536 9.33333 24 9.33333ZM6.66667 6.66667V17.3333H2.66667C2.31304 17.3333 1.97391 17.1929 1.72386 16.9428C1.47381 16.6928 1.33333 16.3536 1.33333 16V6.66667C1.33333 6.48 1.33333 6.30667 1.33333 6.13333C1.40406 5.42609 1.75284 4.77591 2.30294 4.32582C2.85305 3.87573 3.55942 3.66261 4.26667 3.73333C4.97391 3.80406 5.62409 4.15284 6.07418 4.70294C6.52427 5.25305 6.73739 5.95942 6.66667 6.66667V6.66667Z" fill="var(--fill-0, #D1D1D1)"/>
</g>
</svg>
