<svg preserveAspectRatio="none" width="100%" height="100%" overflow="visible" style="display: block;" viewBox="0 0 32 32" fill="none" xmlns="http://www.w3.org/2000/svg">
<g id="Money">
<path id="Vector" d="M6.41381 4.99981C3.98588 4.99981 1.99992 6.98577 1.99992 9.4137V22.5831C1.99992 25.011 3.98588 26.997 6.41381 26.997H25.5849C28.0129 26.997 29.9988 25.011 29.9988 22.5831V9.4137C29.9988 6.98577 28.0129 4.99981 25.5849 4.99981H6.41381ZM15.9955 8.40202C16.5508 8.39982 17.0015 8.85057 16.9993 9.40588V10.1812C17.2149 10.2462 17.4271 10.3302 17.6282 10.441C18.4898 10.9156 19.0823 11.7511 19.2512 12.7202C19.3433 13.2624 18.9803 13.7772 18.4387 13.8725C17.8972 13.9634 17.3837 13.6007 17.2884 13.06C17.1523 12.3492 16.4127 11.816 15.597 12.1304C15.2731 12.2641 14.9806 12.5909 14.8822 12.9272C14.6281 13.8755 15.481 14.3729 16.4681 14.9428C17.1404 15.2612 18.0146 15.6306 18.675 16.4564C19.371 17.3266 19.5929 18.4808 19.2727 19.5481C18.9725 20.4843 18.143 21.5032 16.9993 21.8097V22.5909C17.0015 23.1462 16.5508 23.597 15.9955 23.5948C15.4432 23.5926 14.9972 23.1432 14.9994 22.5909V21.7745C14.6341 21.6578 14.2801 21.501 13.9662 21.2609C13.0812 20.5839 12.5843 19.5185 12.6382 18.4055C12.6676 17.8561 13.1354 17.4337 13.685 17.4603C14.2383 17.4856 14.6657 17.9558 14.6381 18.509C14.6176 18.9332 14.8457 19.417 15.183 19.675C15.9819 20.1362 16.8944 19.9615 17.3548 18.9739C17.4768 18.5671 17.3759 18.036 17.1107 17.7044C16.1044 16.6981 14.3907 16.3459 13.4116 15.1283C12.8478 14.3222 12.6862 13.3108 12.9624 12.3667C13.2325 11.3587 13.9963 10.5047 14.9994 10.2359V9.40589C14.9972 8.85363 15.4432 8.40422 15.9955 8.40202L15.9955 8.40202Z" fill="var(--fill-0, #D1D1D1)"/>
</g>
</svg>
