<svg preserveAspectRatio="none" width="100%" height="100%" overflow="visible" style="display: block;" viewBox="0 0 32 32" fill="none" xmlns="http://www.w3.org/2000/svg">
<g id="Contact Book">
<path id="Vector" d="M27.6 0.333333H9.53333V31.6667H27.6667C28.2667 31.6667 28.7333 31.2 28.7333 30.6V1.4C28.7333 0.8 28.2 0.333333 27.6 0.333333ZM22 10.9333C22 11.5333 21.6 12 21.0667 12.2C19.5333 12.7333 18.4667 14.1333 18.4667 15.8V16.2C18.4667 17.8667 19.5333 19.3333 21.0667 19.8C21.6 20 22 20.4667 22 21.0667V24.6667C22 25.6 21.0667 26.2667 20.2 25.8667L19.3333 25.6C16.6667 24.5333 14.9333 21.6667 14.9333 19V13.1333C14.9333 10.4667 16.6667 7.53333 19.3333 6.53333L20.2 6.2C21.0667 5.73333 22 6.4 22 7.33333V10.9333ZM7.2 31.6667V0.333333H4.4C3.8 0.333333 3.33333 0.8 3.33333 1.4V30.5333C3.33333 31.1333 3.8 31.6 4.4 31.6H7.2V31.6667Z" fill="var(--fill-0, #D1D1D1)"/>
</g>
</svg>
