<svg preserveAspectRatio="none" width="100%" height="100%" overflow="visible" style="display: block;" viewBox="0 0 32 32" fill="none" xmlns="http://www.w3.org/2000/svg">
<g id="Ticket">
<path id="Vector" d="M5.68018 24.17H11.4189V7.82999H5.68018C4.75 7.82999 4 8.59 4 9.51999V12.38C4 13.19 4.57007 13.89 5.37012 14.03C6.31006 14.21 7 15.04 7 16C7 16.96 6.31006 17.79 5.37012 17.97C4.57007 18.11 4 18.81 4 19.62V22.48C4 23.41 4.75 24.17 5.68018 24.17ZM26.3101 7.82999H13.4189V24.17H26.3101C27.24 24.17 28 23.41 28 22.48V19.62C28 18.81 27.4199 18.11 26.6201 17.97C25.6802 17.79 25 16.96 25 16C25 15.04 25.6802 14.21 26.6301 14.03C27.4199 13.89 28 13.19 28 12.38V9.51999C28 8.59 27.24 7.82999 26.3101 7.82999Z" fill="var(--fill-0, #D1D1D1)"/>
</g>
</svg>
