<svg preserveAspectRatio="none" width="100%" height="100%" overflow="visible" style="display: block;" viewBox="0 0 32 32" fill="none" xmlns="http://www.w3.org/2000/svg">
<g id="email">
<path id="Vector" d="M18.5161 15.9806C17.771 16.5225 16.8903 16.7839 16 16.7839C15.1194 16.7839 14.229 16.5129 13.4645 15.9709L1.19354 7.15478C1.06775 7.50317 1 7.87091 1 8.25806V23.7419C1 25.6097 2.51935 27.129 4.38708 27.129H27.6129C29.4806 27.129 31 25.6097 31 23.7419V8.25806C31 7.94837 30.9613 7.64838 30.8742 7.35804L18.5161 15.9806Z" fill="var(--fill-0, #D1D1D1)"/>
<path id="Vector_2" d="M4.38708 4.87097C4 4.87097 3.61292 4.93872 3.26453 5.07416L15.1581 13.6193C15.6613 13.9774 16.3387 13.9774 16.8419 13.6096L25.2033 7.77418L28.9581 5.15156C28.5419 4.96772 28.0871 4.87098 27.6129 4.87098H4.38708V4.87097Z" fill="var(--fill-0, #D1D1D1)"/>
</g>
</svg>
