<svg preserveAspectRatio="none" width="100%" height="100%" overflow="visible" style="display: block;" viewBox="0 0 32 32" fill="none" xmlns="http://www.w3.org/2000/svg">
<g id="Coin">
<path id="Vector" d="M20 29.3333C18.4177 29.3333 16.871 28.8641 15.5554 27.9851C14.2398 27.106 13.2145 25.8566 12.609 24.3948C12.0035 22.933 11.845 21.3245 12.1537 19.7726C12.4624 18.2208 13.2243 16.7953 14.3431 15.6765C15.462 14.5577 16.8874 13.7957 18.4393 13.4871C19.9911 13.1784 21.5997 13.3368 23.0615 13.9423C24.5233 14.5478 25.7727 15.5732 26.6518 16.8888C27.5308 18.2044 28 19.7511 28 21.3333C28 23.4551 27.1571 25.4899 25.6569 26.9902C24.1566 28.4905 22.1217 29.3333 20 29.3333ZM11.3333 11.8093C15.384 11.8093 18.6667 9.76267 18.6667 7.23867C18.6667 4.71467 15.384 2.66667 11.3333 2.66667C7.28267 2.66667 4 4.71333 4 7.23867C4 9.764 7.28267 11.8093 11.3333 11.8093ZM10.2307 17.0667C10.6858 16.0346 11.3014 15.081 12.0547 14.2413C11.8147 14.256 11.58 14.2853 11.3333 14.2853C7.28267 14.2853 4 12.2387 4 9.71467V12.5707C4 14.86 6.70933 16.732 10.2307 17.0667ZM9.51867 23.2747C9.39796 22.6345 9.33593 21.9847 9.33333 21.3333C9.33333 21.0133 9.35333 20.6973 9.38133 20.384C6.28267 19.852 4 18.1013 4 16V18.8573C4 20.9893 6.34933 22.7693 9.51867 23.2747ZM11.3333 29.3333C11.8143 29.333 12.2947 29.3031 12.772 29.244C12.4419 28.934 12.1415 28.5939 11.8747 28.228C11.4021 27.6737 10.9871 27.0729 10.636 26.4347C6.91733 26.2133 4 24.2813 4 21.9053V24.7613C4 27.2867 7.28267 29.3333 11.3333 29.3333Z" fill="var(--fill-0, #D1D1D1)"/>
</g>
</svg>
