<svg preserveAspectRatio="none" width="100%" height="100%" overflow="visible" style="display: block;" viewBox="0 0 32 32" fill="none" xmlns="http://www.w3.org/2000/svg">
<g id="Home">
<path id="Vector" d="M15.9994 1.99992C14.9733 1.99992 13.9467 2.39636 13.1655 3.17761L5.24798 11.2789C3.73886 12.7881 2.84745 13.6885 2.40633 14.9115C1.974 16.1102 2.0001 17.5097 2.0001 20.0051V25.997C2.0001 28.2229 3.80342 29.9988 6.00185 29.9988H9.99969L9.99774 21.9972C9.99631 19.7986 11.7814 17.9993 14.0034 17.9993H17.9954C20.2174 17.9993 22.0024 19.7986 22.001 21.9972L21.999 29.9988H25.9969C28.1953 29.9988 29.9986 28.2229 29.9986 25.997V20.0051C29.9986 17.5097 30.0247 16.1102 29.5924 14.9115C29.1513 13.6885 28.2599 12.7881 26.7508 11.2789L18.8332 3.17761C18.0521 2.39636 17.0254 1.99992 15.9994 1.99992ZM14.0034 20.0012C12.9016 20.0012 11.9992 20.8719 11.9996 21.9972L12.0016 29.9988H19.9973L19.9993 21.9972C19.9996 20.8719 19.0973 20.0012 17.9955 20.0012H14.0034Z" fill="var(--fill-0, #DF1D01)"/>
</g>
</svg>
