<svg preserveAspectRatio="none" width="100%" height="100%" overflow="visible" style="display: block;" viewBox="0 0 32 32" fill="none" xmlns="http://www.w3.org/2000/svg">
<g id="Dashboard">
<path id="03 dashboard, layout, grid" d="M14.6667 5.33333V10.6667C14.6667 11.7275 14.2452 12.7449 13.4951 13.4951C12.7449 14.2452 11.7275 14.6667 10.6667 14.6667H5.33333C4.27247 14.6667 3.25505 14.2452 2.50491 13.4951C1.75476 12.7449 1.33333 11.7275 1.33333 10.6667V5.33333C1.33333 4.27247 1.75476 3.25505 2.50491 2.50491C3.25505 1.75476 4.27247 1.33333 5.33333 1.33333H10.6667C11.7275 1.33333 12.7449 1.75476 13.4951 2.50491C14.2452 3.25505 14.6667 4.27247 14.6667 5.33333ZM26.6667 1.33333H21.3333C20.2725 1.33333 19.2551 1.75476 18.5049 2.50491C17.7548 3.25505 17.3333 4.27247 17.3333 5.33333V10.6667C17.3333 11.7275 17.7548 12.7449 18.5049 13.4951C19.2551 14.2452 20.2725 14.6667 21.3333 14.6667H26.6667C27.7275 14.6667 28.7449 14.2452 29.4951 13.4951C30.2452 12.7449 30.6667 11.7275 30.6667 10.6667V5.33333C30.6667 4.27247 30.2452 3.25505 29.4951 2.50491C28.7449 1.75476 27.7275 1.33333 26.6667 1.33333V1.33333ZM10.6667 17.3333H5.33333C4.27247 17.3333 3.25505 17.7548 2.50491 18.5049C1.75476 19.2551 1.33333 20.2725 1.33333 21.3333V26.6667C1.33333 27.7275 1.75476 28.7449 2.50491 29.4951C3.25505 30.2452 4.27247 30.6667 5.33333 30.6667H10.6667C11.7275 30.6667 12.7449 30.2452 13.4951 29.4951C14.2452 28.7449 14.6667 27.7275 14.6667 26.6667V21.3333C14.6667 20.2725 14.2452 19.2551 13.4951 18.5049C12.7449 17.7548 11.7275 17.3333 10.6667 17.3333ZM26.6667 17.3333H21.3333C20.2725 17.3333 19.2551 17.7548 18.5049 18.5049C17.7548 19.2551 17.3333 20.2725 17.3333 21.3333V26.6667C17.3333 27.7275 17.7548 28.7449 18.5049 29.4951C19.2551 30.2452 20.2725 30.6667 21.3333 30.6667H26.6667C27.7275 30.6667 28.7449 30.2452 29.4951 29.4951C30.2452 28.7449 30.6667 27.7275 30.6667 26.6667V21.3333C30.6667 20.2725 30.2452 19.2551 29.4951 18.5049C28.7449 17.7548 27.7275 17.3333 26.6667 17.3333Z" fill="var(--fill-0, #D1D1D1)"/>
</g>
</svg>
